HIERARCHY
ROOT Hips
{
	OFFSET 0.00000 0.00000 0.00000
	CHANNELS 6 Xposition Yposition Zposition Zrotation Yrotation Xrotation 
	JOINT RightUpLegDummy
	{
		OFFSET 0 0 0
		CHANNELS 3 Zrotation Yrotation Xrotation
		JOINT RightUpLeg
		{
			OFFSET -3.52197 -3.41223 0.04002
			CHANNELS 3 Zrotation Yrotation Xrotation
			JOINT RightLeg
			{
				OFFSET 0.00006 -17.42390 1.60435
				CHANNELS 3 Zrotation Yrotation Xrotation
				JOINT RightFoot
				{
					OFFSET 0.06154 -16.50078 -1.63900
					CHANNELS 3 Zrotation Yrotation Xrotation
					JOINT RightToes
					{
						OFFSET 0.00298 -1.73825 3.34613
						CHANNELS 3 Zrotation Yrotation Xrotation
						End Site
						{
							OFFSET 0.00480 -0.05416 3.85043
						}
					}
				}
			}
		}
	}
	JOINT SpineDummy
	{
		OFFSET 0 0 0
		CHANNELS 3 Zrotation Yrotation Xrotation
		JOINT Spine
		{
			OFFSET 0.00000 4.68130 0.00000
			CHANNELS 3 Zrotation Yrotation Xrotation
			JOINT Spine1
			{
				OFFSET -0.00000 10.10138 0.05002
				CHANNELS 3 Zrotation Yrotation Xrotation
				JOINT HEadDummy
				{
					OFFSET 0 0 0
					CHANNELS 3 Zrotation Yrotation Xrotation
					JOINT Head
					{
						OFFSET -0.00000 3.43865 0.00438
						CHANNELS 3 Zrotation Yrotation Xrotation
						End Site
						{
							OFFSET -0.11417 5.02924 0.98962
						}
					}
				}
				JOINT LeftShoulder1Dummy
				{
					OFFSET 0 0 0
					CHANNELS 3 Zrotation Yrotation Xrotation
					JOINT LeftShoulder1
					{
						OFFSET 3.53937 -0.14262 -0.08662
						CHANNELS 3 Zrotation Yrotation Xrotation
						JOINT LeftArm
						{
							OFFSET 4.04833 -0.00133 0.12681
							CHANNELS 3 Zrotation Yrotation Xrotation
							JOINT LeftForeArm
							{
								OFFSET 10.33880 -0.01036 -0.55515
								CHANNELS 3 Zrotation Yrotation Xrotation
								JOINT LeftHand
								{
									OFFSET 8.69677 0.07543 0.40060
									CHANNELS 3 Zrotation Yrotation Xrotation
									End Site
									{
										OFFSET 5.28377 -0.21905 0.59205
									}
								}
							}
						}
					}
				}
				JOINT RightShoulderDummy
				{
					OFFSET 0 0 0
					CHANNELS 3 Zrotation Yrotation Xrotation
					JOINT RightShoulder
					{
						OFFSET -3.53937 -0.14262 -0.08660
						CHANNELS 3 Zrotation Yrotation Xrotation
						JOINT RightArm
						{
							OFFSET -4.04833 -0.00133 0.12683
							CHANNELS 3 Zrotation Yrotation Xrotation
							JOINT RightForeArm
							{
								OFFSET -10.37987 -0.01039 -0.55511
								CHANNELS 3 Zrotation Yrotation Xrotation
								JOINT RightHand
								{
									OFFSET -8.67398 0.07538 0.40058
									CHANNELS 3 Zrotation Yrotation Xrotation
									End Site
									{
										OFFSET -5.24810 -0.21916 0.59204
									}
								}
							}
						}
					}
				}
			}
		}
	}
	JOINT LeftUpLegDummy
	{
		OFFSET 0 0 0
		CHANNELS 3 Zrotation Yrotation Xrotation
		JOINT LeftUpLeg
		{
			OFFSET 3.52197 -3.41223 0.04002
			CHANNELS 3 Zrotation Yrotation Xrotation
			JOINT LeftLeg
			{
				OFFSET -0.00012 -17.42399 1.60337
				CHANNELS 3 Zrotation Yrotation Xrotation
				JOINT LeftFoot
				{
					OFFSET -0.09972 -16.50070 -1.63802
					CHANNELS 3 Zrotation Yrotation Xrotation
					JOINT LeftToes
					{
						OFFSET -0.01575 -1.73823 3.34611
						CHANNELS 3 Zrotation Yrotation Xrotation
						End Site
						{
							OFFSET 0.03150 -0.01868 3.85031
						}
					}
				}
			}
		}
	}
}
MOTION
Frames: 15
Frame Time: 0.033333
-65.8459 40.7562 -28.8566 59.9901 86.8893 62.0086 0.0000 0.0000 0.0000 -2.7027 -5.5752 -0.5373 -2.2693 -7.7047 6.5686 3.9877 -0.1733 -6.9041 -0.0000 -0.0000 0.0000 0.0000 0.0000 0.0000 -2.8973 -0.8506 -13.7853 0.9554 -0.7460 19.9181 0.0000 0.0000 0.0000 0.4643 -3.5724 -3.3907 0.0000 0.0000 0.0000 -19.8689 -3.7195 1.9020 -58.7134 -14.5776 -20.5137 -10.9623 3.3224 39.5467 14.9858 -3.5625 -1.1291 0.0000 0.0000 0.0000 20.0405 1.0076 1.1960 58.3750 13.6036 -1.7235 10.7437 10.9275 25.2489 -5.6981 1.4543 -0.3228 0.0000 0.0000 0.0000 -4.6665 -1.8875 -1.1570 -1.2124 14.8468 -1.4335 2.8552 -0.2576 -1.0653 -0.0000 0.0000 -0.0000
-65.8384 40.7562 -28.8476 60.7575 86.8314 62.7648 0.0000 0.0000 0.0000 -2.8097 -5.6994 -0.5441 -2.1826 -7.6031 6.6401 3.9865 -0.1731 -6.9613 -0.0000 -0.0000 0.0000 0.0000 0.0000 0.0000 -2.9161 -0.8909 -13.8139 0.8747 -0.7544 19.9440 0.0000 0.0000 0.0000 0.4732 -3.5607 -3.4420 0.0000 0.0000 0.0000 -19.8133 -3.6698 1.8852 -58.6928 -14.5756 -20.5829 -10.8883 3.3566 39.9882 14.8771 -3.6493 -1.1312 0.0000 0.0000 0.0000 20.0873 1.0132 1.1995 58.3822 13.6602 -1.5994 10.7547 10.9450 25.1120 -5.6088 1.3551 -0.3135 0.0000 0.0000 0.0000 -4.6998 -1.9068 -1.1128 -1.2766 14.5689 -1.5059 2.9947 -0.2666 -1.0497 -0.0000 0.0000 -0.0000
-65.8254 40.7560 -28.8310 61.8633 86.7599 63.8634 0.0000 0.0000 0.0000 -2.9404 -5.8597 -0.5447 -2.0682 -7.4865 6.7136 3.9506 -0.1706 -7.0345 -0.0000 -0.0000 0.0000 0.0000 0.0000 0.0000 -2.9372 -0.9557 -13.8824 0.7589 -0.7731 19.9815 0.0000 0.0000 0.0000 0.4739 -3.5644 -3.4661 0.0000 0.0000 0.0000 -19.7395 -3.6239 1.8683 -58.6559 -14.4820 -20.3660 -11.0523 3.1675 39.5216 15.4007 -3.6681 -1.1748 0.0000 0.0000 0.0000 20.2488 1.0309 1.2110 58.3043 13.7042 -1.2895 10.7516 11.0300 24.8837 -5.4758 1.3012 -0.3037 0.0000 0.0000 0.0000 -4.7430 -1.9338 -1.0600 -1.3418 14.3137 -1.5832 3.0988 -0.2732 -1.0366 -0.0000 0.0000 -0.0000
-65.8171 40.7554 -28.8148 61.8431 86.6998 63.8955 0.0000 0.0000 0.0000 -3.0002 -5.9440 -0.6160 -1.9964 -7.3922 6.7667 3.8778 -0.1658 -7.0776 -0.0000 -0.0000 0.0000 0.0000 0.0000 0.0000 -2.9711 -0.9910 -14.0475 0.7536 -0.7969 20.0811 0.0000 0.0000 0.0000 0.4369 -3.5573 -3.4578 0.0000 0.0000 0.0000 -19.7366 -3.5851 1.8579 -58.5566 -14.3476 -20.0338 -11.3093 2.7915 38.7246 15.3162 -3.7061 -1.1730 0.0000 0.0000 0.0000 20.3263 1.0719 1.2252 58.2698 13.7049 -0.8494 10.7046 11.2002 24.5920 -5.3936 1.3449 -0.3006 0.0000 0.0000 0.0000 -4.7642 -1.9544 -1.0945 -1.3542 14.3895 -1.5955 3.0583 -0.2706 -1.0381 -0.0000 0.0000 -0.0000
-65.8134 40.7557 -28.8036 61.0757 86.6673 63.1796 0.0000 0.0000 0.0000 -3.0043 -5.9688 -0.6775 -1.9523 -7.3163 6.7783 3.8160 -0.1618 -7.0826 -0.0000 -0.0000 0.0000 0.0000 0.0000 0.0000 -3.0018 -1.0096 -14.2142 0.8583 -0.8461 20.2262 0.0000 0.0000 0.0000 0.3871 -3.5074 -3.4164 0.0000 0.0000 0.0000 -19.7769 -3.4910 1.8359 -58.5351 -14.3225 -19.8247 -11.4683 2.5052 38.0530 14.9688 -3.6933 -1.1437 0.0000 0.0000 0.0000 20.1352 1.1527 1.2385 58.4458 13.7194 -0.5390 10.6689 11.3168 24.2912 -5.3593 1.2930 -0.2967 0.0000 0.0000 0.0000 -4.7577 -1.9519 -1.1365 -1.3445 14.6126 -1.5890 2.9657 -0.2647 -1.0408 -0.0000 0.0000 -0.0000
-65.8051 40.7574 -28.7961 61.1770 86.6968 63.2356 0.0000 0.0000 0.0000 -2.9906 -5.9841 -0.5691 -1.9072 -7.3090 6.6989 3.8019 -0.1609 -7.0610 -0.0000 -0.0000 0.0000 0.0000 0.0000 0.0000 -2.9378 -1.0605 -14.2427 0.8789 -0.9181 20.3242 0.0000 0.0000 0.0000 0.3718 -3.4470 -3.3147 0.0000 0.0000 0.0000 -19.7398 -3.3427 1.7947 -58.7208 -14.4508 -19.9200 -11.3763 2.5489 38.0196 15.1749 -3.5679 -1.1445 0.0000 0.0000 0.0000 19.8660 1.2610 1.2553 58.6935 13.7692 -0.6107 10.7188 11.2295 24.2298 -5.3618 1.1300 -0.2906 0.0000 0.0000 0.0000 -4.7268 -1.9174 -1.0609 -1.3442 14.6359 -1.6042 2.9204 -0.2618 -1.0458 -0.0000 0.0000 -0.0000
-65.7916 40.7582 -28.7878 62.2815 86.7643 64.2555 0.0000 0.0000 0.0000 -2.9683 -5.9925 -0.3790 -1.8752 -7.3799 6.5783 3.8244 -0.1624 -7.0440 -0.0000 -0.0000 0.0000 0.0000 0.0000 0.0000 -2.7693 -1.1199 -14.2374 0.7316 -0.9519 20.3965 0.0000 0.0000 0.0000 0.4173 -3.4264 -3.1635 0.0000 0.0000 0.0000 -19.6267 -3.2625 1.7666 -58.9808 -14.6103 -20.1130 -11.1871 2.7715 38.3342 15.7848 -3.3209 -1.1604 0.0000 0.0000 0.0000 19.8545 1.3394 1.2754 58.7157 13.7925 -0.8566 10.8007 11.0635 24.4060 -5.4520 1.1018 -0.2946 0.0000 0.0000 0.0000 -4.6948 -1.8904 -0.9533 -1.3256 14.4993 -1.5921 2.8981 -0.2603 -1.0708 -0.0000 0.0000 -0.0000
-65.7838 40.7588 -28.7765 62.6793 86.7758 64.6767 0.0000 0.0000 0.0000 -2.9466 -5.9770 -0.3786 -1.8831 -7.4285 6.5606 3.8513 -0.1641 -7.0585 -0.0000 -0.0000 0.0000 0.0000 0.0000 0.0000 -2.6840 -1.1003 -14.4130 0.6594 -0.9113 20.5574 0.0000 0.0000 0.0000 0.4932 -3.4384 -2.9990 0.0000 0.0000 0.0000 -19.6317 -3.3526 1.7904 -59.0233 -14.7005 -20.0834 -11.1713 2.8705 38.3293 15.9943 -3.0548 -1.1416 0.0000 0.0000 0.0000 20.0642 1.3371 1.2843 58.4940 13.7362 -0.7861 10.7912 11.1050 24.3709 -5.6370 1.2802 -0.3122 0.0000 0.0000 0.0000 -4.7017 -1.9320 -1.0017 -1.2517 14.5644 -1.5103 2.8213 -0.2554 -1.1108 -0.0000 0.0000 -0.0000
-65.7859 40.7593 -28.7639 61.6344 86.6997 63.7642 0.0000 0.0000 0.0000 -2.9407 -5.9496 -0.5967 -1.9195 -7.3837 6.6713 3.8584 -0.1645 -7.0900 -0.0000 -0.0000 0.0000 0.0000 0.0000 0.0000 -2.8408 -0.9944 -14.7106 0.9034 -0.8591 20.7704 0.0000 0.0000 0.0000 0.4905 -3.4467 -2.8433 0.0000 0.0000 0.0000 -19.8817 -3.5278 1.8525 -58.7826 -14.7453 -19.8545 -11.3382 2.8034 37.9879 15.8842 -2.9459 -1.1192 0.0000 0.0000 0.0000 20.1576 1.2703 1.2708 58.2887 13.6392 -0.4402 10.7035 11.3187 24.0446 -5.8080 1.4559 -0.3293 0.0000 0.0000 0.0000 -4.7479 -2.0287 -1.1802 -1.1599 14.8806 -1.4249 2.7064 -0.2480 -1.1340 -0.0000 0.0000 -0.0000
-65.7876 40.7595 -28.7521 60.7007 86.6211 62.9244 0.0000 0.0000 0.0000 -2.9402 -5.9322 -0.7595 -1.9476 -7.3248 6.7546 3.8381 -0.1632 -7.0985 -0.0000 -0.0000 0.0000 0.0000 0.0000 0.0000 -3.1026 -0.9043 -14.8764 1.2864 -0.8659 20.8636 0.0000 0.0000 0.0000 0.3215 -3.4460 -2.7100 0.0000 0.0000 0.0000 -20.2086 -3.6254 1.8999 -58.5145 -14.7759 -19.7165 -11.4595 2.7387 37.8385 16.1915 -3.0621 -1.1573 0.0000 0.0000 0.0000 20.0506 1.1941 1.2458 58.2221 13.5803 -0.5099 10.6904 11.3187 24.1628 -5.8855 1.5488 -0.3378 0.0000 0.0000 0.0000 -4.7778 -2.0863 -1.2764 -1.1346 15.0529 -1.4325 2.6614 -0.2451 -1.1218 -0.0000 0.0000 -0.0000
-65.7806 40.7597 -28.7424 61.0423 86.6141 63.2532 0.0000 0.0000 0.0000 -2.9430 -5.9306 -0.7134 -1.9505 -7.3426 6.7120 3.8103 -0.1614 -7.0815 -0.0000 -0.0000 0.0000 0.0000 0.0000 0.0000 -3.2019 -0.8862 -14.8789 1.4338 -0.8889 20.8201 0.0000 0.0000 0.0000 0.0752 -3.4055 -2.5231 0.0000 0.0000 0.0000 -20.3484 -3.6549 1.9171 -58.4527 -14.7617 -19.8003 -11.4158 2.7599 38.0822 16.7728 -3.2633 -1.2277 0.0000 0.0000 0.0000 19.9961 1.1302 1.2265 58.1679 13.5695 -1.2559 10.7899 10.9908 25.0465 -5.9129 1.6471 -0.3437 0.0000 0.0000 0.0000 -4.7598 -2.0587 -1.2129 -1.1938 14.8593 -1.5279 2.7334 -0.2498 -1.0873 -0.0000 0.0000 -0.0000
-65.7717 40.7599 -28.7349 61.8638 86.6362 64.0370 0.0000 0.0000 0.0000 -2.9488 -5.9408 -0.6154 -1.9392 -7.3907 6.6426 3.8104 -0.1614 -7.0730 -0.0000 -0.0000 0.0000 0.0000 0.0000 0.0000 -3.1147 -0.8785 -14.9047 1.3178 -0.8483 20.7843 0.0000 0.0000 0.0000 -0.0738 -3.1957 -2.0134 0.0000 0.0000 0.0000 -20.2916 -3.7583 1.9409 -58.5402 -14.6989 -19.9738 -11.2998 2.8249 38.4247 16.7219 -3.3607 -1.2375 0.0000 0.0000 0.0000 20.1068 1.0673 1.2146 58.0557 13.5307 -1.9695 10.8421 10.7315 25.7824 -5.9229 1.6663 -0.3451 0.0000 0.0000 0.0000 -4.7318 -2.0106 -1.1279 -1.2621 14.5728 -1.6148 2.8347 -0.2563 -1.0562 -0.0000 0.0000 -0.0000
-65.7703 40.7599 -28.7298 61.9553 86.6250 64.1344 0.0000 0.0000 0.0000 -2.9597 -5.9552 -0.6213 -1.9283 -7.3857 6.6493 3.8381 -0.1632 -7.0779 -0.0000 -0.0000 0.0000 0.0000 0.0000 0.0000 -3.0404 -0.8224 -14.9696 1.2459 -0.7673 20.7514 0.0000 0.0000 0.0000 -0.1525 -2.7143 -0.9350 0.0000 0.0000 0.0000 -20.2622 -3.9375 1.9867 -58.5756 -14.6485 -20.1027 -11.2206 2.9311 38.6705 15.9471 -3.3430 -1.1757 0.0000 0.0000 0.0000 20.1799 1.0142 1.2036 57.9865 13.4090 -2.1148 10.7761 10.7944 25.7363 -5.8636 1.4966 -0.3343 0.0000 0.0000 0.0000 -4.7338 -2.0131 -1.1273 -1.2722 14.5065 -1.6340 2.8572 -0.2577 -1.0436 -0.0000 0.0000 -0.0000
-65.7741 40.7599 -28.7268 61.5002 86.6003 63.6991 0.0000 0.0000 0.0000 -2.9675 -5.9643 -0.6670 -1.9187 -7.3500 6.6762 3.8517 -0.1641 -7.0659 -0.0000 -0.0000 0.0000 0.0000 0.0000 0.0000 -3.0664 -0.7551 -14.8993 1.3593 -0.7324 20.5510 0.0000 0.0000 0.0000 -0.3430 -2.0717 0.5447 0.0000 0.0000 0.0000 -20.3990 -4.0397 2.0236 -58.4691 -14.6341 -20.1894 -11.1850 3.1037 38.9022 15.3556 -3.3515 -1.1315 0.0000 0.0000 0.0000 20.0758 1.0043 1.1966 58.0078 13.2550 -2.1734 10.7170 10.8651 25.6934 -5.7443 1.3682 -0.3219 0.0000 0.0000 0.0000 -4.7477 -2.0430 -1.1560 -1.2442 14.6148 -1.6237 2.8044 -0.2543 -1.0426 -0.0000 0.0000 -0.0000
-65.7777 40.7597 -28.7248 61.4158 86.6031 63.6130 0.0000 0.0000 0.0000 -2.9642 -5.9696 -0.6571 -1.9033 -7.3450 6.6464 3.8360 -0.1632 -7.0345 -0.0000 -0.0000 0.0000 0.0000 0.0000 0.0000 -3.0770 -0.7314 -14.6817 1.4668 -0.7482 20.1802 0.0000 0.0000 0.0000 -0.5966 -1.4882 1.9054 0.0000 0.0000 0.0000 -20.6083 -4.0187 2.0327 -58.2825 -14.6116 -20.2816 -11.1641 3.2610 39.1124 15.3797 -3.4780 -1.1493 0.0000 0.0000 0.0000 19.9446 1.0406 1.2007 58.0141 13.1752 -2.6752 10.7714 10.6473 26.3099 -5.6814 1.5060 -0.3239 0.0000 0.0000 0.0000 -4.7490 -2.0443 -1.1433 -1.2341 14.7269 -1.6435 2.7480 -0.2507 -1.0324 -0.0000 0.0000 -0.0000
